<svg width="11" height="11" viewBox="0 0 11 11" fill="none" xmlns="http://www.w3.org/2000/svg">
<path fill-rule="evenodd" clip-rule="evenodd" d="M1 1H10V10H1V1ZM0 1C0 0.734784 0.105357 0.48043 0.292893 0.292893C0.48043 0.105357 0.734784 0 1 0H10C10.2652 0 10.5196 0.105357 10.7071 0.292893C10.8946 0.48043 11 0.734784 11 1V10C11 10.2652 10.8946 10.5196 10.7071 10.7071C10.5196 10.8946 10.2652 11 10 11H1C0.734784 11 0.48043 10.8946 0.292893 10.7071C0.105357 10.5196 0 10.2652 0 10V1ZM8.35 3.511C8.42506 3.4016 8.45358 3.26686 8.42929 3.13643C8.40501 3.006 8.3299 2.89056 8.2205 2.8155C8.1111 2.74044 7.97636 2.71192 7.84593 2.73621C7.7155 2.76049 7.60006 2.8356 7.525 2.945L4.64 7.15L3.197 5.41C3.11205 5.30902 2.99062 5.24572 2.85919 5.23389C2.72777 5.22207 2.59699 5.26268 2.49538 5.34687C2.39377 5.43106 2.32956 5.55201 2.31675 5.68335C2.30394 5.81469 2.34357 5.94576 2.427 6.048L4.293 8.298C4.34242 8.35746 4.40497 8.40465 4.47571 8.43586C4.54645 8.46707 4.62347 8.48145 4.70071 8.47786C4.77795 8.47428 4.8533 8.45283 4.92085 8.4152C4.9884 8.37757 5.0463 8.32479 5.09 8.261L8.35 3.511Z" fill="black"/>
</svg>
