<svg width="14" height="14" viewBox="0 0 14 14" fill="none" xmlns="http://www.w3.org/2000/svg">
<path d="M0.146397 0.146393C0.0618432 0.230971 0.0104054 0.343055 0.00141538 0.462311C-0.00757469 0.581567 0.0264784 0.700095 0.0973971 0.796393L0.146397 0.853393L2.8364 3.54339C1.5252 4.46251 0.589034 5.82327 0.199397 7.37639C0.170725 7.50381 0.193046 7.63739 0.261587 7.74856C0.330128 7.85973 0.439447 7.93968 0.566167 7.97129C0.692886 8.00291 0.826946 7.98368 0.939676 7.91774C1.05241 7.85179 1.13486 7.74435 1.1694 7.61839C1.51517 6.23983 2.36692 5.04181 3.5554 4.26239L4.7624 5.46939C4.27822 5.9727 4.01079 6.64584 4.01755 7.3442C4.02431 8.04255 4.30474 8.71039 4.79857 9.20422C5.2924 9.69805 5.96024 9.97848 6.65859 9.98524C7.35695 9.992 8.03009 9.72457 8.5334 9.24039L12.4794 13.1864C12.5686 13.2753 12.6881 13.3272 12.8139 13.3318C12.9398 13.3364 13.0627 13.2933 13.1582 13.2112C13.2537 13.1292 13.3147 13.014 13.329 12.8889C13.3433 12.7638 13.3099 12.6379 13.2354 12.5364L13.1864 12.4794L9.1114 8.40339V8.40239L8.3114 7.60339L6.3984 5.69039L4.4794 3.77139L3.7244 3.01639L0.853397 0.146393C0.759633 0.0526578 0.632479 0 0.499897 0C0.367315 0 0.240161 0.0526578 0.146397 0.146393ZM5.4694 6.17639L7.8254 8.53339C7.5107 8.83546 7.09015 9.00214 6.65396 8.99768C6.21778 8.99321 5.80072 8.81795 5.49228 8.50951C5.18384 8.20107 5.00858 7.78401 5.00411 7.34783C4.99965 6.91164 5.16733 6.49109 5.4694 6.17639ZM6.6664 2.33339C5.9994 2.33339 5.3524 2.43139 4.7404 2.61639L5.5654 3.44039C5.92273 3.36973 6.28973 3.33406 6.6664 3.33339C7.92952 3.33362 9.1564 3.7556 10.1524 4.53241C11.1484 5.30922 11.8565 6.39637 12.1644 7.62139C12.1989 7.74735 12.2814 7.85479 12.3941 7.92074C12.5068 7.98668 12.6409 8.00591 12.7676 7.97429C12.8943 7.94268 13.0037 7.86274 13.0722 7.75156C13.1407 7.64039 13.1631 7.50681 13.1344 7.37939C12.7725 5.93794 11.9396 4.65862 10.7679 3.74446C9.5961 2.8303 8.15258 2.33368 6.6664 2.33339ZM6.7964 4.67339L9.3304 7.20639C9.29748 6.54498 9.01994 5.91939 8.55167 5.45112C8.0834 4.98285 7.45782 4.70631 6.7964 4.67339Z" fill="black"/>
</svg>
