<svg width="49" height="52" viewBox="0 0 49 52" fill="none" xmlns="http://www.w3.org/2000/svg">
<path d="M48.353 32.6096L44.5691 29.3594C44.7482 28.2566 44.8406 27.1307 44.8406 26.0047C44.8406 24.8787 44.7482 23.7528 44.5691 22.65L48.353 19.3998C48.6384 19.1543 48.8426 18.8274 48.9386 18.4624C49.0346 18.0975 49.0177 17.7119 48.8902 17.3568L48.8382 17.2059C47.7966 14.2808 46.2367 11.5692 44.234 9.2022L44.13 9.08032C43.8871 8.79332 43.5633 8.58702 43.2013 8.48859C42.8393 8.39016 42.4562 8.40423 42.1023 8.52894L37.4057 10.2063C35.6726 8.77851 33.7373 7.65254 31.6461 6.8632L30.7391 1.92982C30.6707 1.55861 30.4914 1.21711 30.2252 0.950678C29.959 0.684249 29.6184 0.505507 29.2486 0.4382L29.0927 0.40918C26.0829 -0.136393 22.9171 -0.136393 19.9073 0.40918L19.7514 0.4382C19.3816 0.505507 19.041 0.684249 18.7748 0.950678C18.5086 1.21711 18.3293 1.55861 18.2609 1.92982L17.3482 6.88642C15.2736 7.67596 13.3417 8.80133 11.629 10.2179L6.89767 8.52894C6.54393 8.40324 6.16048 8.38866 5.7983 8.48715C5.43611 8.58564 5.11232 8.79252 4.86997 9.08032L4.76598 9.2022C2.76568 11.5709 1.20607 14.282 0.161766 17.2059L0.109773 17.3568C-0.150189 18.0823 0.0635581 18.8948 0.647029 19.3998L4.47714 22.6848C4.29805 23.776 4.2114 24.8903 4.2114 25.9989C4.2114 27.1133 4.29805 28.2276 4.47714 29.313L0.647029 32.598C0.361623 32.8435 0.157355 33.1704 0.0613858 33.5354C-0.0345834 33.9003 -0.0177063 34.286 0.109773 34.641L0.161766 34.7919C1.20739 37.7171 2.75561 40.416 4.76598 42.7956L4.86997 42.9175C5.11291 43.2045 5.43671 43.4108 5.79868 43.5092C6.16066 43.6076 6.54382 43.5936 6.89767 43.4689L11.629 41.7799C13.3505 43.2019 15.2742 44.3279 17.3482 45.1114L18.2609 50.068C18.3293 50.4392 18.5086 50.7807 18.7748 51.0471C19.041 51.3136 19.3816 51.4923 19.7514 51.5596L19.9073 51.5886C22.9448 52.1371 26.0552 52.1371 29.0927 51.5886L29.2486 51.5596C29.6184 51.4923 29.959 51.3136 30.2252 51.0471C30.4914 50.7807 30.6707 50.4392 30.7391 50.068L31.6461 45.1346C33.7365 44.3473 35.6827 43.2177 37.4057 41.7915L42.1023 43.4689C42.4561 43.5946 42.8395 43.6091 43.2017 43.5107C43.5639 43.4122 43.8877 43.2053 44.13 42.9175L44.234 42.7956C46.2444 40.4102 47.7926 37.7171 48.8382 34.7919L48.8902 34.641C49.1502 33.9271 48.9364 33.1146 48.353 32.6096ZM40.4675 23.3349C40.6119 24.2113 40.687 25.1109 40.687 26.0105C40.687 26.9101 40.6119 27.8097 40.4675 28.6861L40.0862 31.0135L44.4015 34.7223C43.7474 36.2365 42.9216 37.6699 41.9406 38.994L36.5796 37.0845L34.7656 38.5819C33.3849 39.7195 31.8483 40.6133 30.1845 41.2401L27.9835 42.0701L26.9494 47.7C25.3178 47.8857 23.6706 47.8857 22.039 47.7L21.005 42.0585L18.8213 41.2169C17.1748 40.5901 15.644 39.6963 14.2748 38.5645L12.4609 37.0613L7.06521 38.9882C6.08313 37.6591 5.2628 36.2255 4.60423 34.7165L8.96582 30.9729L8.59032 28.6513C8.45167 27.7865 8.37657 26.8927 8.37657 26.0105C8.37657 25.1225 8.44589 24.2345 8.59032 23.3697L8.96582 21.0481L4.60423 17.3045C5.25702 15.7897 6.08313 14.3619 7.06521 13.0328L12.4609 14.9597L14.2748 13.4565C15.644 12.3247 17.1748 11.4309 18.8213 10.8041L21.0107 9.97413L22.0448 4.33267C23.6681 4.14694 25.3261 4.14694 26.9552 4.33267L27.9893 9.96252L30.1903 10.7925C31.8483 11.4193 33.3907 12.3131 34.7714 13.4507L36.5854 14.9481L41.9464 13.0386C42.9284 14.3677 43.7488 15.8013 44.4073 17.3104L40.092 21.0191L40.4675 23.3349ZM24.5058 15.2151C18.8906 15.2151 14.3384 19.7887 14.3384 25.4301C14.3384 31.0716 18.8906 35.6451 24.5058 35.6451C30.121 35.6451 34.6732 31.0716 34.6732 25.4301C34.6732 19.7887 30.121 15.2151 24.5058 15.2151ZM29.0811 30.0269C28.481 30.6315 27.7678 31.111 26.9826 31.4377C26.1974 31.7644 25.3557 31.9319 24.5058 31.9306C22.7785 31.9306 21.1552 31.2515 19.9304 30.0269C19.3286 29.424 18.8514 28.7075 18.5262 27.9186C18.201 27.1297 18.0343 26.284 18.0356 25.4301C18.0356 23.6947 18.7115 22.0638 19.9304 20.8334C21.1552 19.6029 22.7785 18.9297 24.5058 18.9297C26.2331 18.9297 27.8564 19.6029 29.0811 20.8334C29.6829 21.4363 30.1602 22.1528 30.4854 22.9417C30.8105 23.7306 30.9773 24.5763 30.9759 25.4301C30.9759 27.1655 30.3 28.7964 29.0811 30.0269Z" fill="#000"/>
</svg>
