<svg width="22" height="21" viewBox="0 0 22 21" fill="none" xmlns="http://www.w3.org/2000/svg">
<path d="M21.9345 7.92399C21.8592 7.68867 21.7144 7.48115 21.5188 7.32833C21.3233 7.1755 21.0859 7.0844 20.8375 7.06682L14.5763 6.56201L12.1644 0.773812C12.0694 0.544888 11.9079 0.349109 11.7004 0.211333C11.493 0.0735577 11.2489 0 10.9991 0C10.7494 0 10.5053 0.0735577 10.2979 0.211333C10.0904 0.349109 9.9289 0.544888 9.8339 0.773812L7.42194 6.56201L1.16082 7.06682C0.912001 7.08776 0.674961 7.18106 0.479422 7.335C0.283882 7.48894 0.138547 7.69668 0.0616405 7.93217C-0.0152661 8.16766 -0.0203203 8.42041 0.0471113 8.65873C0.114543 8.89706 0.251459 9.11034 0.44069 9.27185L5.21267 13.3518L3.75408 19.4489C3.693 19.6899 3.70597 19.9436 3.79135 20.1772C3.87672 20.4109 4.03059 20.614 4.23322 20.7604C4.43584 20.9067 4.67798 20.9897 4.92854 20.9988C5.1791 21.0078 5.42666 20.9423 5.63945 20.8109L10.9991 17.5437L16.3588 20.8109C16.5694 20.9427 16.8152 21.0083 17.0641 20.9992C17.3129 20.99 17.5532 20.9064 17.7532 20.7594C17.9589 20.6151 18.1159 20.4126 18.2035 20.1784C18.2911 19.9442 18.3053 19.6892 18.2442 19.4469L16.7856 13.3467L21.5576 9.2668C21.7488 9.10612 21.887 8.89222 21.9542 8.6528C22.0214 8.41339 22.0145 8.15949 21.9345 7.92399ZM21.0249 8.65698L16.0665 12.8974C16.01 12.9457 15.968 13.0084 15.945 13.0787C15.922 13.1491 15.919 13.2243 15.9361 13.2962L17.4507 19.6357C17.4729 19.7223 17.4681 19.8136 17.4368 19.8974C17.4055 19.9813 17.3493 20.0537 17.2755 20.1052C17.2054 20.1571 17.1209 20.1866 17.0334 20.1898C16.9459 20.1931 16.8595 20.1699 16.7856 20.1233L11.213 16.7259C11.1487 16.6866 11.0747 16.6658 10.9991 16.6658C10.9236 16.6658 10.8495 16.6866 10.7852 16.7259L5.21267 20.1233C5.13877 20.1699 5.05235 20.1931 4.96485 20.1898C4.87735 20.1866 4.79292 20.1571 4.72274 20.1052C4.649 20.0537 4.59276 19.9813 4.56147 19.8974C4.53019 19.8136 4.52533 19.7223 4.54755 19.6357L6.06215 13.2962C6.07932 13.2243 6.07625 13.1491 6.05326 13.0787C6.03027 13.0084 5.98825 12.9457 5.93178 12.8974L0.9734 8.65698C0.904901 8.59974 0.855423 8.52335 0.831435 8.43778C0.807447 8.35222 0.810066 8.26147 0.83895 8.17741C0.865511 8.09416 0.916725 8.02075 0.985934 7.96673C1.05514 7.91272 1.13915 7.88059 1.22702 7.87452L7.73973 7.34851C7.81464 7.34261 7.88645 7.31628 7.94721 7.27245C8.00796 7.22862 8.05531 7.16898 8.084 7.10014L10.5917 1.08276C10.6246 1.00119 10.6813 0.931257 10.7547 0.881993C10.828 0.832729 10.9146 0.806396 11.0032 0.806396C11.0918 0.806396 11.1784 0.832729 11.2517 0.881993C11.3251 0.931257 11.3819 1.00119 11.4147 1.08276L13.9224 7.10014C13.9505 7.16784 13.9966 7.22672 14.0558 7.27046C14.115 7.31421 14.1851 7.34119 14.2585 7.34851L20.7672 7.86846C20.8551 7.87453 20.9391 7.90666 21.0083 7.96068C21.0775 8.01469 21.1287 8.0881 21.1553 8.17135C21.186 8.25583 21.1899 8.34759 21.1666 8.43437C21.1433 8.52114 21.0939 8.59881 21.0249 8.65698Z" fill="#000"/>
</svg>
